<?xml version="1.0" encoding="UTF-8"?>
<svg version="1.1" viewBox="0 0 1600 1600" width="1280" height="1280" xmlns="http://www.w3.org/2000/svg">
<path transform="translate(0)" d="m0 0h1600v1600h-1600v-1600z" fill="#FAFEFE"/>
<path transform="translate(732 1359)" d="m0 0c1.56 0.00381 3.11 0.00743 4.67 0.0109 19.2 0.0562 38.4 0.304 57.6 0.546 4.95 0.0619 9.9 0.121 14.8 0.181 9.6 0.116 19.2 0.235 28.8 0.355v3h10v-3c36.6-1.35 73.5-2.05 110 1.83 1.99 0.167 4 0.168 6 0.168 1.2 0.261 1.2 0.261 2.43 0.527 2.74 0.505 4.87 0.373 7.63 0.0352 8.27-0.85 16-1.52 23.9 1.44 0.66-0.165 1.32-0.33 2-0.5 3.01-0.753 5.17 0.408 8 1.5v1c-8.91 0.99-8.91 0.99-18 2v3h-2v-3h-2v4c-1.65 0.33-3.3 0.66-5 1-0.402-0.959-0.402-0.959-0.812-1.94-1.07-2.39-1.07-2.39-4.19-3.06-0.33 0.99-0.66 1.98-1 3-0.99-0.33-1.98-0.66-3-1-0.33-0.66-0.66-1.32-1-2-5.47-0.26-5.47-0.26-10.7 1-4.15 1.27-7.85 1.22-12.2 1.12-1.18-0.0135-1.18-0.0135-2.38-0.0273-1.92-0.0234-3.83-0.0592-5.75-0.0977v4c0.99 0.33 1.98 0.66 3 1h-3c0.33 1.32 0.66 2.64 1 4 0.675 0.0804 1.35 0.161 2.04 0.244 3.11 0.373 6.22 0.752 9.33 1.13 1.59 0.189 1.59 0.189 3.21 0.383 6.54 0.803 13 1.84 19.4 3.24 0.749 0.16 1.5 0.32 2.27 0.485 2.2 0.475 4.4 0.962 6.6 1.45 1.17 0.26 1.17 0.26 2.37 0.525 4.29 0.96 8.56 1.98 12.8 3.1 4.86 1.23 9.75 2.22 14.7 3.12 0.697 0.132 1.39 0.263 2.11 0.399 0.679 0.12 1.36 0.24 2.06 0.363 0.594 0.107 1.19 0.213 1.8 0.323 3.41 0.341 6.85 0.228 10.3 0.228-6.6-1.32-13.2-2.64-20-4v-2c0.697 0.0606 1.39 0.121 2.11 0.184 5.7 0.487 11.4 0.931 17.1 1.32 1.22 0.0825 2.43 0.165 3.68 0.25 2.52 0.169 5.03 0.336 7.55 0.5 1.2 0.0825 2.41 0.165 3.64 0.25 1.09 0.0722 2.17 0.144 3.29 0.219 2.61 0.281 2.61 0.281 4.61 1.28 3.04 0.167 3.04 0.167 6 0 0.33-0.33 0.66-0.66 1-1 2.67-0.141 5.32-0.0425 8 0v2h5c0.33 2.97 0.66 5.94 1 9h4c-0.0937 3.94-0.958 6.54-3.56 9.44-4.55 3.7-9.61 2.75-15.1 2.22-1.78-0.199-3.56-0.427-5.34-0.662v5c-1.65 0.33-3.3 0.66-5 1v2h-6c0.33 2.31 0.66 4.62 1 7 2.64 0.99 5.28 1.98 8 3v2h-15v2c1.49-0.495 1.49-0.495 3-1 4.56-0.253 7.87-0.00169 12 2v2h-30v2h-21c-0.33 0.66-0.66 1.32-1 2-3-1-3-1-5-2v2h-21v2c-4.04 0.227-8.08 0.428-12.1 0.625-1.14 0.0645-2.28 0.129-3.46 0.195-1.11 0.0516-2.22 0.103-3.36 0.156-1.02 0.0524-2.03 0.105-3.08 0.159-3.3-0.15-5.9-0.961-8.98-2.14 0.33-0.99 0.66-1.98 1-3 1.48-0.495 1.48-0.495 3-1-1.98-0.33-3.96-0.66-6-1v2c-1.65 0.33-3.3 0.66-5 1v2h5v2c-6.97 0.78-13.9 1.06-20.9 1-10.7-0.0878-21.4 0.428-32.1 1v3h-6v-3c-1.38 0.116-2.75 0.243-4.12 0.375-0.766 0.0696-1.53 0.139-2.32 0.211-2.61 0.333-2.61 0.333-5.15 1.42-4.22 1.24-8.05 1.33-12.4 1.38-0.858 0.017-1.72 0.034-2.6 0.0515-2.73 0.0529-5.46 0.0933-8.19 0.132-2.72 0.0442-5.44 0.0912-8.16 0.143-1.69 0.0314-3.37 0.0585-5.06 0.0802-4.74 0.0819-9.34 0.432-14 1.1-1.93 0.112-1.93 0.112-4.93-0.888-4.62-0.357-4.62-0.357-8.93 1-2.42 1.17-4.08 1.24-6.76 1.19-0.788-0.00645-1.58-0.0129-2.39-0.0195-1.93-0.168-1.93-0.168-2.93-1.17-3.3-0.0326-6.6 0.0686-9.9 0.16-3.05-0.0177-5.76-0.491-8.73-1.16-9.18-1.78-18.6-1.17-27.9-1.06-34.8 0.339-34.8 0.339-45.9-1.96-7.71-1.59-15.6-1.41-23.4-1.54-2.38-0.0441-4.76-0.0908-7.14-0.143-1.47-0.0316-2.94-0.0586-4.41-0.0802-5.06-0.103-5.06-0.103-7.52-0.724-3.12-0.771-6.17-0.601-9.37-0.588-1.06 0.00212-1.06 0.00212-2.14 0.00429-2.24 0.00558-4.48 0.0181-6.72 0.0309-1.52 0.00502-3.05 0.00958-4.57 0.0137-3.73 0.011-7.45 0.0283-11.2 0.0488-0.33-0.99-0.66-1.98-1-3-1.65-0.33-3.3-0.66-5-1l-1 2c-0.66-0.66-1.32-1.32-2-2 0.375-2.12 0.375-2.12 1-4h-3l-1 2v-2h-2c0.33 1.65 0.66 3.3 1 5-1.98-0.495-1.98-0.495-4-1 0.495-1.98 0.495-1.98 1-4h-6c0.33 1.65 0.66 3.3 1 5-3.43 1.14-5.61 0.909-9.19 0.562-1.63-0.153-1.63-0.153-3.29-0.309-0.831-0.0838-1.66-0.168-2.52-0.254 0.495-1.98 0.495-1.98 1-4h-13l-1 2c-0.959-0.278-0.959-0.278-1.94-0.562-0.681-0.144-1.36-0.289-2.06-0.438-0.33 0.33-0.66 0.66-1 1-1.69 0.0721-3.38 0.0839-5.06 0.0625-1.38-0.0135-1.38-0.0135-2.79-0.0273-1.07-0.0174-1.07-0.0174-2.15-0.0352v-3c4.95-0.33 9.9-0.66 15-1v-3h-5v2h-10v-3c4.95-0.33 9.9-0.66 15-1v-6c-2.97 0.495-2.97 0.495-6 1 0.99 0.66 1.98 1.32 3 2v2c-5.02 0.779-8.98 1.13-14 0v-2c-3.63-0.99-7.26-1.98-11-3 0.495-1.48 0.495-1.48 1-3 2.06-0.688 2.06-0.688 4-1-1.98-0.33-3.96-0.66-6-1v-2c-0.694-0.0954-1.39-0.191-2.1-0.289-3.48-0.854-6.15-2.33-9.27-4.09-4.48-2.47-8.87-4.75-13.6-6.62 1.55-3.81 3.9-6.02 6.94-8.75 0.875-0.799 1.75-1.6 2.65-2.42 2.41-1.83 2.41-1.83 5.41-1.83v-6h2v3h6v-2h7c0.66-1.32 1.32-2.64 2-4 4.29 0.33 8.58 0.66 13 1v3c-1.32 0.33-2.64 0.66-4 1 1.58 0.169 3.17 0.335 4.75 0.5 0.882 0.0928 1.76 0.186 2.67 0.281 2.81 0.275 2.81 0.275 6.58 0.219v-2h10c-0.184-0.715-0.369-1.43-0.559-2.17-0.477-3.06-0.185-5.14 0.496-8.14 0.195-0.883 0.389-1.77 0.59-2.68 0.234-0.996 0.234-0.996 0.473-2.01h-2c-0.33 0.66-0.66 1.32-1 2-3.96-0.33-7.92-0.66-12-1v-2c7.18-1.01 13.8-0.888 21 0v-2h2v3c-0.969 0.124-1.94 0.247-2.94 0.375-1.01 0.206-2.02 0.412-3.06 0.625-0.33 0.66-0.66 1.32-1 2h4c0.33-0.66 0.66-1.32 1-2 0.33 0.33 0.66 0.66 1 1 2.31-0.66 4.62-1.32 7-2v-3h3v-2h-3v-3c12.1-4.57 24.1-7.27 37-4 2.1-0.0553 2.1-0.0553 4.25-0.375 0.777-0.0993 1.55-0.199 2.36-0.301 1.19-0.16 1.19-0.16 2.39-0.324 1.52-0.189 3.04-0.376 4.56-0.562 1.7-0.217 1.7-0.217 3.44-0.438v2c2.48-0.99 2.48-0.99 5-2v2h42v-2c10-0.865 20-1.14 30-1.09z" fill="#FAFDFE"/>
<path transform="translate(1013,395)" d="m0 0c0.66 0.33 1.32 0.66 2 1 0.74 12.6-2.6 23.1-10.6 32.9-19.9 21.4-56.8 28.5-84.7 31.7-2.65 0.101-2.65 0.101-3.75 1.39 13.7 0.343 27.2 0.0616 40.9-1.5 14.4-1.65 28.6-1.83 43.1-1.5 0.66 1.32 1.32 2.64 2 4-11.7 16.1-33.3 22.4-52 26-6.45 0.998-12.9 1.58-19.4 2.19-2.52 0.244-5.04 0.492-7.56 0.744-1.55 0.154-3.1 0.304-4.65 0.447-3.47 0.0606-3.47 0.0606-6.34 1.62 6.67 1.69 12.8 2.29 19.7 2.44 8.21 0.269 16.3 0.865 24.4 1.94 1.38 0.171 1.38 0.171 2.78 0.345 4.64 0.652 8.3 1.31 12.1 4.28 0.33 0.66 0.66 1.32 1 2-3.41 3.66-6.67 6.24-11.1 8.62-1.53 0.855-1.53 0.855-3.1 1.73-10.7 4.99-21.5 5.04-33.1 4.84-1.54-0.0151-3.07-0.0288-4.61-0.041-3.72-0.0326-7.43-0.0842-11.1-0.146v2c1.1 0.242 2.2 0.485 3.33 0.734 23.3 5.23 23.3 5.23 26.5 9.89 0.4 0.782 0.799 1.56 1.21 2.37-13.1 11.5-32.6 10.6-49 11v2c0.964 0.17 1.93 0.34 2.92 0.516 1.26 0.242 2.53 0.485 3.83 0.734 1.25 0.232 2.51 0.464 3.8 0.703 3.62 1.1 5.09 2.16 7.45 5.05-10.4 6.7-10.4 6.7-16 7-3.51-4.23-6.31-8.67-9.12-13.4-3.95-5.52-9.49-8.63-15.9-10.6-2.32-0.214-4.52-0.193-6.85-0.0742-3.14 0.108-6.06-0.399-9.15-0.926-1.06-3.18-0.954-4.28-0.363-7.49 0.163-0.919 0.326-1.84 0.494-2.78 0.184-1 0.368-2.01 0.557-3.04 1.49-8.39 2.74-16.8 3.77-25.2 1.5-12.2 3.38-23.8 7.54-35.4-5.73 0.931-9.48 3.18-13.3 7.51-8.44 12.1-11.2 28.9-14.4 43-0.388 1.68-0.778 3.35-1.17 5.03-0.713 3.07-1.42 6.15-2.12 9.23-0.159 0.688-0.319 1.38-0.483 2.09-0.338 1.53-0.647 3.08-0.936 4.62-0.156 0.807-0.313 1.61-0.474 2.45-0.2 1.1-0.2 1.1-0.404 2.23-0.662 1.86-0.662 1.86-3.66 3.86-1.87 0.497-3.75 0.92-5.64 1.3-1.71 0.351-1.71 0.351-3.46 0.709-1.22 0.246-2.45 0.491-3.71 0.744-10.3 2.11-20.4 4.5-30.4 7.51-1.26 0.365-1.26 0.365-2.54 0.737-0.723 0.218-1.45 0.437-2.19 0.662-2.42 0.408-3.74 0.236-6.03-0.658-0.976-1.76-0.976-1.76-1.62-4.01-0.239-0.817-0.478-1.63-0.724-2.47-0.974-3.75-1.87-7.51-2.67-11.3-0.364-1.67-0.728-3.34-1.09-5.01-0.186-0.861-0.372-1.72-0.564-2.61-2.73-12.6-5.5-25.1-9.08-37.5-0.257-0.905-0.514-1.81-0.778-2.74-2.54-8.46-5.99-17.2-12.5-23.4-2.01-0.941-2.01-0.941-4.17-1.66-0.718-0.255-1.44-0.511-2.18-0.774-0.546-0.187-1.09-0.374-1.66-0.566 0.507 1.78 0.507 1.78 1.02 3.59 3.39 12 5.94 23.4 7.23 35.8 0.521 4.9 1.26 9.67 2.33 14.5 0.423 2.12 0.63 4.17 0.801 6.32 1.14 10.8 4.74 20.9 9.43 30.6 2.3 4.89 2.3 4.89 1.2 8.19-3.79 2.25-7.9 3.87-11.9 5.62-1.1 0.503-2.21 1.01-3.35 1.52-6.47 2.84-12.6 5.12-19.7 4.85-1-1-1-1-1.06-3.56 0.0206-0.804 0.0412-1.61 0.0625-2.44-0.664-0.12-1.33-0.24-2.01-0.363-9.82-2.09-19.6-4.54-27-11.6 0.33-0.99 0.66-1.98 1-3 2.29-0.949 2.29-0.949 5.06-1.69 1.38-0.377 1.38-0.377 2.79-0.762 0.71-0.182 1.42-0.364 2.15-0.551-4.73-1.47-9.11-2.32-14.1-2.81-10.6-1.35-20.6-4.25-28.9-11.2 0.125-1.81 0.125-1.81 1-4 4.68-3.04 9.74-4.03 15.1-5.12 1.59-0.336 3.17-0.672 4.76-1.01 0.695-0.143 1.39-0.286 2.11-0.434 2.02-0.434 4.01-0.922 6.01-1.43-1.53-1.53-2.96-1.16-5.09-1.21-1.29-0.0393-1.29-0.0393-2.6-0.0793-1.39-0.0419-1.39-0.0419-2.81-0.0847-18.2-0.726-35.7-3.14-50.2-15.1-1.25-1.57-1.25-1.57-1.25-5.57 2.8-1.55 5.07-2.31 8.24-2.63 0.812-0.0838 1.62-0.168 2.46-0.254 0.862-0.0786 1.72-0.157 2.61-0.238l2.71-0.262c6.43-0.578 12.7-0.661 19.2-0.555 4.57-0.07 9.04-0.486 13.6-0.996 0.776-0.087 1.55-0.174 2.35-0.264 3.1-0.373 5.93-0.808 8.9-1.8-0.914-0.098-1.83-0.196-2.77-0.297-57.3-6.33-57.3-6.33-80.2-23.7-0.949-0.7-0.949-0.7-1.92-1.41-2.26-1.75-3.88-3.15-5.08-5.77 0-1.81 0-1.81 2-3.81 3.81-0.483 7.67-0.33 11.5-0.312 1.78 0.00193 1.78 0.00193 3.59 0.00391 10.6 0.109 21 0.994 31.5 2.02 11.5 1.12 22.8 1.67 34.4 1.29v-2c-0.667-0.0468-1.33-0.0936-2.02-0.142-6.78-0.537-13.3-1.56-19.9-3.05-0.992-0.221-1.98-0.441-3.01-0.669-51.9-11.8-51.9-11.8-65.1-32.1-7.72-15.7-7.72-15.7-7-24 1.69-2.5 1.69-2.5 4-4 3.39 0 5.48 1.25 8.5 2.81 10.7 5.49 22.7 7.45 34.4 9.56 0.798 0.147 1.6 0.293 2.42 0.445 18 3.29 36.2 5.65 54.4 7.92 0.885 0.111 1.77 0.222 2.68 0.337 4.1 0.511 8.19 0.992 12.3 1.39 1.09 0.115 1.09 0.115 2.2 0.231 1.92 0.2 3.85 0.383 5.78 0.565 4.82 1.06 8.14 3.2 11.2 7.1 2.52 4.45 4.86 8.64 6.17 13.6 6.84-2.02 13.7-4.13 20.5-6.29 6.68-2.1 12.5-3.56 19.5-2.71 3.39 2.05 4.8 3.7 7 7 1.1 7.17-0.762 14.2-2.27 21.2-1.02 5.25-1.41 10.5-1.73 15.8 9.12 2.51 17.5 3.42 26.9 3.25 1.22-0.011 2.44-0.0219 3.7-0.0332 8.15-0.1 16.3-0.363 24.4-1.22 0.204-6.29 0.0672-12.3-1-18.5-2.53-15.3-2.53-15.3 0.688-22.1 2.95-3.11 4.97-5.17 9.37-5.67 7.09-0.161 13 1.44 19.7 3.67 8.49 2.85 8.49 2.85 17.2 4.56 0.17-0.58 0.34-1.16 0.516-1.76 3.5-11.3 3.5-11.3 8.15-14.3 5.05-2.61 9.51-3.69 15.1-4.22 0.832-0.0916 1.66-0.183 2.52-0.278 1.78-0.195 3.56-0.384 5.34-0.566 4.73-0.486 9.44-1.03 14.2-1.56 0.949-0.106 1.9-0.213 2.88-0.322 46.3-4.68 46.3-4.68 89.8-19.7 0.838-0.405 1.68-0.81 2.54-1.23z" fill="#1C3B46"/>
<path transform="translate(752,1382)" d="m0 0h16v2c1.07-0.165 2.14-0.33 3.25-0.5 3.75-0.5 3.75-0.5 7.75-0.5 0.99 0.99 0.99 0.99 2 2 1.91 0.384 1.91 0.384 4 0.5 3.78 0.278 3.78 0.278 6 2.5 2.58 0.145 5.05 0.187 7.62 0.125 0.706-0.00902 1.41-0.018 2.14-0.0273 1.74-0.0236 3.49-0.0595 5.23-0.0977 0.33-0.66 0.66-1.32 1-2 4.87-1.66 9.87-2.26 15-2 0.33-0.66 0.66-1.32 1-2 4.82-0.0247 9.65-0.0428 14.5-0.0549 1.64-0.00504 3.28-0.0119 4.93-0.0205 2.36-0.0121 4.71-0.0178 7.07-0.0222 0.739-0.00516 1.48-0.0103 2.24-0.0156 1.77-1.96e-4 3.53 0.0513 5.3 0.113 0.33 0.33 0.66 0.66 1 1 1.7 0.118 3.4 0.167 5.1 0.189 1.09 0.0167 2.18 0.0334 3.3 0.0507 1.78 0.0204 1.78 0.0204 3.6 0.0411 1.83 0.0276 1.83 0.0276 3.69 0.0558 3.92 0.059 7.83 0.112 11.8 0.163 3.88 0.0516 7.77 0.105 11.7 0.163 2.42 0.0363 4.84 0.0688 7.26 0.0969 5.9 0.0882 11.7 0.341 17.5 1.04 3.11 0.293 6.12 0.0569 9.22-0.24 1.67-0.153 1.67-0.153 3.38-0.309 0.822-0.0838 1.64-0.168 2.49-0.254v2c1.07-0.247 2.14-0.495 3.25-0.75 6.5-0.861 13 1.88 18.8 4.75v4c0.639 0.289 1.28 0.578 1.94 0.875 2.06 1.12 2.06 1.12 3.06 3.12 1.71 0.983 1.71 0.983 3.75 1.88 6.91 3.42 6.91 3.42 9.25 6.12 0.652 3.12 0.621 5.88 0 9-2.42 3.5-5.03 4.68-9 6-2.95 0.492-5.9 0.782-8.88 1.06-1.56 0.157-3.12 0.314-4.68 0.473-0.755 0.0748-1.51 0.15-2.29 0.227-1.93 0.213-3.85 0.502-5.77 0.801-3.63 0.468-7.05 0.462-10.7 0.375-5.55-0.0806-10.8 0.266-16.3 1.03-12.8 1.57-25.7 1.49-38.5 1.64-3.33 0.0399-6.67 0.0914-10 0.141-7.61 0.109-15.2 0.192-22.8 0.258-1.13 0.0103-2.26 0.0205-3.42 0.0311-3.13 0.0253-6.25 0.042-9.38 0.0548-0.895 0.00698-1.79 0.014-2.71 0.0211-7.3 0.0107-14.4-0.694-21.7-1.67-3.65-0.418-7.15-0.473-10.8-0.438-1.68-0.285-3.35-0.6-5-1v1c-6.61 0.127-6.61 0.127-8.84-0.594-3.07-0.579-5.41 0.216-8.41 1.03-1.08 0.287-2.16 0.575-3.27 0.871-0.82 0.228-1.64 0.456-2.48 0.691v1h-7v-2c-0.701 0.0658-1.4 0.132-2.12 0.199-29.3 2.59-58.5 1.58-87.9 0.801v2c-7.75 1.23-14.9 0.656-22.6-0.25-1.24-0.141-2.48-0.281-3.76-0.426-24.8-2.91-24.8-2.91-32.6-8.32-3.05-1.98-5.1-3.02-8.69-3.88-3.31-1.12-3.31-1.12-4.75-3.44-0.556-2.66-0.717-4.98-0.562-7.69h2c0.33-1.32 0.66-2.64 1-4 0.99 0.33 1.98 0.66 3 1-0.464 1.11-0.464 1.11-0.938 2.25-1.31 3.31-1.31 3.31-2.06 6.75 0.66 0.99 1.32 1.98 2 3 0.66-0.66 1.32-1.32 2-2h1c-0.66-0.99-1.32-1.98-2-3-0.923-2.39-1.11-3.58-0.438-6.06 1.99-2.68 4.46-3.51 7.44-4.94 0.66-0.99 1.32-1.98 2-3-0.33-0.99-0.66-1.98-1-3 4.67-2.72 9.87-4.04 15.2-3.94 2.8 0.203 2.8 0.203 4.75-1.56 2.71-2.03 4.7-1.73 8-1.5v-1c5.03-1.23 8.1-0.4 13 1 2-0.319 4-0.655 6-1 2.67-0.0692 5.3-0.0935 7.97-0.0625 0.757 0.00379 1.51 0.00757 2.3 0.0115 3.21 0.0162 6.42 0.044 9.63 0.0715 8.96 0.07 17.8-0.0573 26.7-0.789 6.04-0.413 12.1-0.376 18.1-0.356 1.24-0.00387 2.47-0.00773 3.75-0.0117 6.9 0.00733 13.7 0.267 20.5 1.14v-2z" fill="#F0F3F4"/>
<path transform="translate(738,580)" d="m0 0c0.781 1.66 0.781 1.66 1.58 3.35 2.64 5.28 5.9 10.1 9.17 15 1.19 1.78 2.37 3.55 3.55 5.34 0.519 0.776 1.04 1.55 1.57 2.35 1.13 1.94 1.13 1.94 1.13 3.94 0.99 0.33 1.98 0.66 3 1-0.779 0.324-0.779 0.324-1.57 0.655-2.38 0.998-4.75 2.02-7.11 3.03-1.22 0.51-1.22 0.51-2.47 1.03-6.74 2.92-11.5 6.51-14.8 13.3v4c1.07-0.00415 1.07-0.00415 2.15-0.00838 17.3-0.0664 34.7-0.116 52-0.147 8.38-0.0154 16.8-0.0365 25.1-0.0709 7.31-0.03 14.6-0.0493 21.9-0.0559 3.87-0.00389 7.73-0.013 11.6-0.0349 3.65-0.0205 7.3-0.0266 10.9-0.0221 1.96-0.0012 3.92-0.0173 5.88-0.0339 12.9 0.0446 26.4 2.59 36.5 11.2 9.3 9.96 10.3 21.3 10.1 34.3-0.54 13.8-6.71 23.8-16.6 33.1-6.33 5.53-12.7 10.9-20.7 13.8-0.476-0.594-0.951-1.19-1.44-1.8-4.69-5.56-9.59-10-15.4-14.3-0.654-0.485-1.31-0.97-1.98-1.47-3.7-2.74-3.7-2.74-8.14-3.41v-3c2.67-1.42 5.33-2.83 8-4.25 0.744-0.396 1.49-0.791 2.25-1.2 4.31-2.29 8.64-4.51 13-6.65 1.99-1 1.99-1 4.73-2.9 0.398-4.93 0.289-7.64-2-12-0.781 0.00553-1.56 0.0111-2.37 0.0168-19 0.133-38 0.232-57.1 0.294-9.2 0.0309-18.4 0.0731-27.6 0.142-8.02 0.0599-16 0.0985-24.1 0.112-4.24 0.00781-8.49 0.0261-12.7 0.0698-4 0.0409-8 0.0533-12 0.0443-1.46 0.00164-2.93 0.0135-4.39 0.0366-7.64 0.115-13.4 0.164-19.3-5.12-0.507-0.528-1.01-1.06-1.54-1.6-0.564-0.554-1.13-1.11-1.71-1.68-8.4-8.57-11.9-21.7-12.4-33.4 0.742-16.4 8.84-29.4 20.3-40.5 4.88-4.14 10.2-7.31 15.8-10.4 0.724-0.402 1.45-0.804 2.2-1.22 1.8-0.781 1.8-0.781 4.8-0.781z" fill="#1C3B46"/>
<path transform="translate(851,750)" d="m0 0c1.02 0.416 2.05 0.833 3.1 1.26 1.09 0.471 2.18 0.941 3.31 1.43 0.601 0.259 1.2 0.517 1.82 0.784 1.95 0.839 3.89 1.68 5.83 2.53 0.666 0.29 1.33 0.579 2.02 0.878 43 18.7 43 18.7 58.9 34.1 0.599 0.514 1.2 1.03 1.82 1.56 13.3 11.9 20 30 21.2 47.4-0.33 0.66-0.66 1.32-1 2-0.293 2-0.56 4-0.812 6-1.73 11.3-6.04 19.1-13.2 28-0.669 0.835-1.34 1.67-2.03 2.53-11.1 13.1-31.5 30.4-49 32.9-4.86-0.724-7.81-3.06-10.9-6.81-1.39-3.43-1.14-5.1-0.0625-8.62 2.8-4.98 5.48-7.27 10.5-9.94 1.26-0.687 2.51-1.37 3.77-2.06 1.24-0.667 2.49-1.33 3.73-2 12.6-6.9 27.2-15.5 32-30 1.01-10.5 1.53-21.2-5-30-0.872-1.27-0.872-1.27-1.76-2.57-12.1-16.5-33.5-23.2-51.9-30.2-2.94-1.12-5.87-2.25-8.8-3.39-12.7-4.94-25.2-9.8-38.5-12.9v31c3.96 0.66 7.92 1.32 12 2l2-2c6.32-0.744 11.9 1.58 17.5 4.31 0.611 0.296 1.22 0.592 1.85 0.896 3.39 1.76 5.41 3.1 6.65 6.79-8.03-0.642-16.8-2.38-24-6 0.33 0.598 0.66 1.2 1 1.81 1 2.19 1 2.19 1 5.19-6.27 0.33-12.5 0.66-19 1-0.0825 2.89-0.165 5.77-0.25 8.75-0.634 16.5-2.37 32.9-3.92 49.4-0.916 9.74-1.78 19.5-2.64 29.2-0.25 2.83-0.502 5.66-0.754 8.48-0.707 7.92-1.41 15.8-2.08 23.8-0.262 3.1-0.529 6.2-0.797 9.3-0.122 1.42-0.24 2.85-0.356 4.27-0.157 1.93-0.325 3.87-0.493 5.8-0.0898 1.08-0.18 2.15-0.272 3.26-0.422 2.66-1.08 4.46-2.44 6.77-1.93-0.726-1.93-0.726-4-2-0.789-1.97-0.789-1.97-1.18-4.38-0.147-0.901-0.294-1.8-0.446-2.73-0.636-4.91-1.1-9.83-1.49-14.8-0.0947-1.14-0.189-2.28-0.287-3.46-0.309-3.74-0.611-7.48-0.912-11.2-0.381-4.64-0.764-9.27-1.15-13.9-0.17-2.05-0.339-4.1-0.507-6.16-0.777-9.42-1.59-18.8-2.43-28.2-0.114-1.27-0.227-2.55-0.344-3.86-0.439-4.92-0.879-9.84-1.33-14.8-1.11-12.2-2.15-24.4-2.6-36.6 0.203-3.74 0.203-3.74-1.33-6.87-3.33-0.448-6.66-0.82-10-1.16-3.7-0.417-6.8-0.838-9.99-2.84 5.11-6.34 12.3-8.12 20-10 0.00935-0.827 0.0187-1.65 0.0283-2.51 0.0537-3.75 0.137-7.5 0.222-11.2 0.0142-1.3 0.0284-2.6 0.043-3.95 0.0322-1.25 0.0645-2.5 0.0977-3.79 0.0314-1.73 0.0314-1.73 0.0635-3.49 0.658-3.65 1.66-4.77 4.55-7.02 2.48-1.26 4.88-2.38 7.44-3.44 0.636-0.274 1.27-0.548 1.93-0.83 4.22-1.79 8.48-3.43 12.8-5.05 4.75-1.82 9.41-3.77 14.1-5.86 1.19-0.534 2.39-1.07 3.62-1.62 1.83-0.825 3.67-1.65 5.5-2.5 1.81-0.834 3.63-1.64 5.45-2.45 1.06-0.481 2.12-0.963 3.21-1.46 3.83-0.999 5.45-0.357 9.05 1.2z" fill="#1C3B46"/>
<path transform="translate(848 704)" d="m0 0c3.02 1.98 5.9 4.05 8.72 6.31 0.607 0.485 1.21 0.969 1.84 1.47 9.57 7.78 9.57 7.78 12.2 12.3-1.33 4-3.7 4.8-7.25 6.62-0.657 0.344-1.31 0.688-1.99 1.04-7.39 3.79-15 6.96-22.7 10.2-4.33 1.82-8.59 3.76-12.8 5.79-5.19 2.46-10.4 4.72-15.8 6.88-5.97 2.42-11.8 4.99-17.7 7.75-13.5 6.37-27.1 12.3-40.8 18.3-0.645 0.28-1.29 0.56-1.95 0.848-6.36 2.76-12.7 5.51-19.1 8.17-21 8.77-44.5 19.1-54.8 40.7-2.91 7.29-2.81 14.1-0.191 21.5 1.54 3.41 3.58 6.37 5.76 9.4 1.3 1.95 1.3 1.95 2.3 4.95 0.99 0.33 1.98 0.66 3 1v2c0.572 0.266 1.14 0.531 1.73 0.805 2.37 1.25 4.37 2.71 6.52 4.32 5.66 4.03 11.7 6.98 17.9 9.98 11.9 5.77 11.9 5.77 13.8 10.9 0.648 5.03 0.531 7.75-2.38 11.9-1.52 1.95-2.4 2.95-4.62 4.06-5.98 0.434-10.1-0.4-15.4-3.25-0.678-0.353-1.36-0.706-2.05-1.07-21.3-11.4-42.5-27-52.6-49.7-0.953-3.41-1.14-4.58 0-8h-2c0.33-1.98 0.66-3.96 1-6h-2c-0.351-7.67 0.0176-13.9 3-21 0.413-1.09 0.825-2.19 1.25-3.31 3-6.8 6.9-14 11.8-19.7h2c0.352-0.847 0.352-0.847 0.711-1.71 5.41-9.62 17.2-15.7 26.4-21.2 1.68-0.993 3.35-2 5.02-3.02 6.17-3.7 12.5-6.95 18.9-10.1 4.07-2.01 8.02-4.15 11.9-6.48 5.17-3.08 10.5-5.79 15.9-8.44 4.71-2.32 9.34-4.75 14-7.24 5.95-3.21 12-6.11 18.2-8.81 0.732-0.335 1.46-0.67 2.22-1.02 5.41-2.47 10.9-4.59 16.5-6.71 5.15-1.99 10.2-4.11 15.3-6.28 0.597-0.25 1.19-0.5 1.81-0.757 1.96-0.823 3.92-1.66 5.88-2.49 0.666-0.284 1.33-0.568 2.02-0.86 3.74-1.63 7.31-3.42 10.8-5.44 0.753-0.426 1.51-0.853 2.28-1.29 1.45-0.834 2.89-1.69 4.32-2.57 4.19-2.41 6.56-3.2 11.1-0.707z" fill="#EFF2F3"/>
<path transform="translate(1037,390)" d="m0 0c7.55 9.37 13.9 18.9 19.5 29.6 0.486 0.919 0.486 0.919 0.983 1.86 16.2 30.5 33.5 69.4 23.6 105-13 35.7-48.1 65.7-76.4 89.5-1.76 1.49-3.51 3-5.25 4.52-7.11 6.18-14.4 12.1-21.9 17.7-1.55 1.18-3.08 2.39-4.62 3.59-7.16 5.62-14.5 10.8-22.1 15.9-4.46 3.02-8.87 6.08-13.2 9.26-0.834 0.608-1.67 1.22-2.53 1.84-1.34 0.986-2.66 1.98-3.98 3-1.56 1.16-1.56 1.16-4.18 2.59-2.66-0.41-2.66-0.41-5-1-0.532-2.73-1.05-5.46-1.56-8.19-0.151-0.769-0.303-1.54-0.459-2.33-1.5-8.13-1.5-8.13 0.0215-11.5 2.19-1.61 4.19-2.85 6.56-4.12 1.38-0.786 2.77-1.58 4.14-2.37 0.714-0.41 1.43-0.82 2.16-1.24 16.6-9.82 32.3-22 47.1-34.3 1.31-1.05 1.31-1.05 2.65-2.13 5.69-4.59 11.2-9.35 16.5-14.3 2.11-1.93 4.25-3.8 6.42-5.66 4.98-4.34 9.65-8.98 14.3-13.6 1.49-1.49 2.99-2.97 4.49-4.45 5.54-5.51 10.7-11.2 15.6-17.3 2.14-2.68 4.35-5.29 6.57-7.89 9.55-11.7 16.1-23.1 15.9-38.4-0.00645-0.903-0.0129-1.81-0.0195-2.74-0.836-31.7-17.6-62.1-33.2-88.8-2.82-4.85-5.02-9.19-6.24-14.7 4.04-4.69 8.27-6.77 14-9z" fill="#1C3B46"/>
<path transform="translate(947 994)" d="m0 0c1.63-0.00957 1.63-0.00957 3.3-0.0193 1.18-0.00111 2.37-0.00223 3.59-0.00337 1.22-0.00333 2.43-0.00666 3.69-0.0101 2.58-0.00507 5.16-0.00741 7.75-0.00725 3.93-0.00217 7.86-0.0203 11.8-0.0393 2.51-0.00294 5.02-0.00492 7.53-0.00586 1.75-0.0108 1.75-0.0108 3.54-0.0218 12 0.0332 24.9 1.71 34.5 9.63 1.05 1.3 1.05 1.3 2.12 2.62 0.5 0.525 1 1.05 1.52 1.59 6.53 6.99 8 14 7.92 23.3 0.02 0.842 0.04 1.68 0.0605 2.55-0.00792 10.3-4.64 18.1-11.5 25.5-8.52 7.97-18.8 11.1-30.3 11.2-1.25 0.0258-2.51 0.0516-3.8 0.0781-4.52-0.382-7.72-1.57-11.9-3.33-0.0497 4.57-0.0859 9.14-0.11 13.7-0.01 1.55-0.0236 3.11-0.041 4.66-0.0245 2.24-0.0357 4.48-0.0444 6.72-0.0103 0.686-0.0206 1.37-0.0313 2.08-0.00105 4.59 0.675 8.5 2.23 12.8 2.84 2.42 5.57 3.18 9.12 4 5.1 1.18 5.1 1.18 6.88 4 0.33 1.65 0.66 3.3 1 5-18.5-0.33-37-0.66-56-1-0.33-0.99-0.66-1.98-1-3 3.14-3.96 6.38-4.98 11.1-6.29 2.12-0.534 2.12-0.534 2.93-2.71 0.0935-1.34 0.126-2.68 0.127-4.02 0.00282-0.841 0.00564-1.68 0.00854-2.55-0.00202-0.925-0.00405-1.85-0.00613-2.8 0.00175-0.972 0.0035-1.94 0.00531-2.95 0.00441-3.23 0.00148-6.45-0.00189-9.68 6.73e-4 -2.23 0.00164-4.47 0.0029-6.7 0.00148-4.69-6.76e-4 -9.37-0.00534-14.1-0.0057-6.02-0.00242-12 0.00357-18.1 0.00361-4.62 0.00247-9.23-1.28e-4 -13.8-6.69e-4 -2.22 1.58e-4 -4.44 0.00248-6.66 0.00253-3.1-0.00132-6.2-0.0069-9.29 0.00202-0.925 0.00405-1.85 0.00613-2.8-0.00282-0.841-0.00564-1.68-0.00854-2.55-5.66e-4 -1.1-5.66e-4 -1.1-0.00114-2.22-0.0171-1.9-0.0171-1.9-1.13-3.8-1.99-1.1-4.02-2.13-6.06-3.12-1.66-0.808-1.66-0.808-3.35-1.63-1.28-0.615-1.28-0.615-2.59-1.24v-4c2.55-1.27 4.35-1.13 7.21-1.15z" fill="#1C3B46"/>
<path transform="translate(562,390)" d="m0 0c2.44 1.08 4.77 2.2 7.12 3.44 0.659 0.338 1.32 0.677 2 1.03 1.63 0.839 3.25 1.69 4.88 2.54-0.672 6.83-2.21 13.3-3.88 19.9-10.4 42.7-9.44 84.8 13.6 123 6.64 10.6 13.8 20.6 22.5 29.6 1.77 2 1.77 2 1.77 4h2c1.34 1.4 1.34 1.4 2.94 3.38 9.26 10.8 20.7 19.2 32.1 27.6 0.753 0.562 1.51 1.12 2.28 1.7 8.49 6.31 17 12.4 26.2 17.6 4.41 2.52 4.41 2.52 5.51 4.71 0.262 1.37 0.484 2.76 0.684 4.14 0.123 0.824 0.246 1.65 0.373 2.5 0.252 1.73 0.502 3.45 0.75 5.18 0.688 4.59 1.55 8.82 3.19 13.2-3.82 0-6.16-1.57-9.36-3.46-0.62-0.36-1.24-0.72-1.88-1.09-6.51-3.82-12.8-7.93-19.1-12.1-0.582-0.389-1.16-0.778-1.76-1.18-17.8-11.9-34.9-24.8-49.9-40.1-0.66-0.33-1.32-0.66-2-1v-2c-0.99-0.33-1.98-0.66-3-1-1.4-1.36-1.4-1.36-2.94-3.19-2.22-2.64-4.45-5.26-6.77-7.82-30.9-34.6-47.5-79-45.2-125 1.27-21.1 5.09-46 15.9-64.6l2-1z" fill="#1C3B46"/>
<path transform="translate(390,994)" d="m0 0c1.34 2.27 1.34 2.27 2.5 5.25 0.632 1.63 0.632 1.63 1.28 3.3 1.51 4.25 2.87 8.53 4.13 12.9 1.25 4.11 2.61 8.17 3.98 12.2 1.56 4.69 3.06 9.4 4.56 14.1 4.65 14.6 9.46 29 14.6 43.5 0.909 2.59 1.79 5.18 2.66 7.78 0.5 1.44 1 2.88 1.5 4.32 0.406 1.19 0.812 2.38 1.23 3.61 2.7 5.25 6.82 8.09 12.3 10.2 3.44 1.32 4.1 1.64 6.25 4.88v3c-7.35 0.0506-14.7 0.0857-22.1 0.11-2.5 0.0101-5 0.0237-7.5 0.041-3.59 0.0242-7.18 0.0356-10.8 0.0444-1.68 0.0155-1.68 0.0155-3.4 0.0313-1.04 1.51e-4 -2.08 3.02e-4 -3.15 4.58e-4 -1.38 0.00666-1.38 0.00666-2.78 0.0135-2.33-0.241-2.33-0.241-5.33-2.24 1.03-2.83 1.68-3.83 4.38-5.27 0.905-0.325 1.81-0.65 2.74-0.984 1.37-0.503 1.37-0.503 2.76-1.02 0.699-0.242 1.4-0.485 2.12-0.734 0.523-7.91-1.31-14.1-3.94-21.5-0.56-1.64-0.56-1.64-1.13-3.32-1.34-4.94-1.34-4.94-3.93-9.18-2.67-0.0886-5.31-0.115-7.97-0.0977-1.2 0.00212-1.2 0.00212-2.42 0.00429-2.56 0.00562-5.12 0.0182-7.67 0.0309-1.73 0.00501-3.46 0.00958-5.19 0.0137-4.25 0.011-8.5 0.0283-12.7 0.0488-2.59 5.6-4.87 11.2-6.69 17.1-0.212 0.655-0.424 1.31-0.643 1.99-1.45 4.64-2.18 9.11-2.67 14 0.748 0.17 1.5 0.34 2.27 0.516 1.48 0.364 1.48 0.364 2.98 0.734 0.975 0.232 1.95 0.464 2.95 0.703 3.19 1.19 4.73 2.35 6.8 5.05v4c-6.39 0.0253-12.8 0.0428-19.2 0.0549-2.18 0.00504-4.35 0.0119-6.53 0.0205-3.12 0.0121-6.24 0.0178-9.36 0.0222-1.47 0.00774-1.47 0.00774-2.97 0.0156-0.901 7.55e-5 -1.8 1.51e-4 -2.73 2.29e-4 -1.2 0.00333-1.2 0.00333-2.42 0.00673-1.83-0.12-1.83-0.12-2.83-1.12-0.188-2.44-0.188-2.44 0-5 2.66-2.66 4.87-2.53 8.52-2.95 5.42-2.29 8.48-7.57 10.7-12.8 0.706-1.8 1.4-3.61 2.07-5.42 0.377-0.973 0.754-1.95 1.14-2.95 1.2-3.1 2.37-6.2 3.55-9.3 0.788-2.05 1.58-4.1 2.37-6.15 3.84-9.98 7.62-20 11.3-30 1.39-3.66 2.87-7.28 4.36-10.9 2.11-5.27 4.09-10.6 5.88-15.9 0.224-0.638 0.447-1.28 0.678-1.93 1.59-4.98 1.28-8.6 0.385-13.6 3.44-2.99 7.23-4.35 11.5-5.75 0.664-0.233 1.33-0.467 2.01-0.707 6.6-2.2 6.6-2.2 9.49-0.543z" fill="#1C3B46"/>
<path transform="translate(1063 993)" d="m0 0c0.957-3e-3 1.91-6e-3 2.9-0.00909 1.03 0.0123 2.05 0.0247 3.11 0.0374 1.06 0.00187 2.11 0.00375 3.2 0.00568 2.23 0.00672 4.46 0.0206 6.69 0.0412 3.43 0.0312 6.86 0.041 10.3 0.0469 2.17 0.00917 4.33 0.0195 6.5 0.0312 1.03 0.00425 2.06 0.0085 3.13 0.0129 1.42 0.0144 1.42 0.0144 2.87 0.0291 0.838 0.00683 1.68 0.0137 2.54 0.0207 1.92 0.14 1.92 0.14 2.92 1.14 0.0409 2.33 0.0424 4.67 0 7-0.759 0.17-1.52 0.34-2.3 0.516-1.49 0.364-1.49 0.364-3.01 0.734-1.48 0.348-1.48 0.348-2.99 0.703-3.3 1.28-4.02 1.94-5.7 5.05-0.489 3.11-0.513 6.21-0.547 9.36-0.0209 0.926-0.0418 1.85-0.0634 2.81-0.0627 3.01-0.103 6.02-0.14 9.03-0.0333 2.06-0.0667 4.12-0.1 6.18-2.2 34.9-2.2 34.9 11.6 65.6 5.96 5.77 12.5 8.08 20.8 8.44 9.33-0.443 15.6-3.4 22.4-9.92 8.99-10.4 8.45-24.7 8.43-37.6 0.00389-1.55 0.00823-3.1 0.013-4.64 0.00742-3.22 0.0072-6.45 0.00191-9.67-0.00583-4.13 0.0113-8.26 0.0343-12.4 0.0147-3.19 0.0156-6.37 0.0125-9.56 5.13e-4 -1.52 0.00575-3.05 0.0158-4.57 0.0123-2.12 0.00561-4.24-0.00601-6.37 6.29e-4 -1.21 0.00126-2.41 0.00191-3.66-0.128-2.93-0.128-2.93-1.72-4.78-2.42-1.71-4.97-2.71-7.72-3.8-5.94-2.38-5.94-2.38-7.94-3.38 0.875-4.88 0.875-4.88 2-6 1.4-0.103 2.81-0.138 4.21-0.145 1.34-0.00957 1.34-0.00957 2.71-0.0193 0.973-0.00111 1.95-0.00223 2.95-0.00337 0.993-0.00333 1.99-0.00666 3.01-0.0101 2.1-0.00507 4.21-0.00741 6.31-0.00725 3.23-0.00219 6.46-0.0203 9.69-0.0393 2.04-0.00293 4.08-0.00492 6.12-0.00586 0.971-0.00719 1.94-0.0144 2.94-0.0218 0.898 0.00308 1.8 0.00615 2.72 0.00932 0.792-0.00143 1.58-0.00285 2.4-0.00432 1.94 0.247 1.94 0.247 3.94 2.25 0.125 3.12 0.125 3.12 0 6-1.36 0.364-1.36 0.364-2.74 0.734-1.18 0.335-2.36 0.67-3.57 1.02-1.17 0.325-2.34 0.65-3.55 0.984-3.36 1.36-4.47 2.1-6.14 5.27-0.878 3.57-1.13 6.92-1.16 10.6-0.0154 1.65-0.0154 1.65-0.0311 3.33-0.0073 1.18-0.0146 2.37-0.0221 3.59-0.0281 2.54-0.0568 5.08-0.0859 7.62-0.0409 3.98-0.0778 7.95-0.104 11.9-0.341 46.9-0.341 46.9-16.3 63.8-10.1 9.49-22.5 11.5-35.9 11.3-13.2-0.562-25.7-4.8-35.4-14.1-10.5-12.5-12.3-28.2-12.2-43.9 0.00566-2.29-0.00368-4.58-0.0172-6.87-0.0369-6.51-0.0556-13-0.0444-19.5 0.00585-4-0.0124-8-0.0459-12-0.00794-1.52-0.0067-3.03 0.00402-4.55 0.0143-2.12-0.00196-4.23-0.025-6.35-9.44e-4 -1.8-9.44e-4 -1.8-0.00191-3.64-0.804-4.1-2.43-5.59-5.63-8.19-2.18-0.791-2.18-0.791-4.31-0.812-1.83-0.0928-1.83-0.0928-3.69-0.188-0.66-1.65-1.32-3.3-2-5 3.02-2.63 4.85-3.37 8.84-3.36z" fill="#1C3B46"/>
<path transform="translate(852 994)" d="m0 0c1.55-6.75e-4 3.1-0.00165 4.65-0.0029 3.21-0.00146 6.43 6.29e-4 9.64 0.00534 4.13 0.00575 8.25 0.00237 12.4-0.00357 3.18-0.0036 6.37-0.00247 9.55 1.28e-4 1.52 6.68e-4 3.05-1.54e-4 4.57-0.00248 2.11-0.00252 4.23 0.00131 6.34 0.0069 1.2 7.96e-4 2.4 0.00159 3.64 0.00241 2.69 0.127 2.69 0.127 3.69 1.13 0.229 2.14 0.396 4.29 0.535 6.44 0.087 1.31 0.174 2.61 0.264 3.96 0.088 1.39 0.176 2.78 0.264 4.17 0.0914 1.39 0.183 2.79 0.275 4.18 0.225 3.42 0.445 6.84 0.662 10.3-6.77 0.149-6.77 0.149-8.82-1.2-1.41-2.16-2.26-4.25-3.12-6.68-1.85-4.81-3.5-8.87-8.34-11.2-2.94-0.96-5.23-1.13-8.32-1.12-1.05 0.00193-2.1 0.00387-3.18 0.00586-1.63 0.0184-1.63 0.0184-3.29 0.0371-1.63 9.67e-4 -1.63 9.67e-4 -3.3 0.00195-4.47 0.0248-8.28 0.0948-12.6 1.19v44c4.21 0.0825 8.41 0.165 12.8 0.25 1.98 0.0546 1.98 0.0546 4 0.11 1.05 0.00999 2.09 0.02 3.17 0.0303 1.07 0.0209 2.14 0.0419 3.24 0.0635 3.54-0.566 4.64-1.68 6.84-4.45 1.41-2.83 2.57-5.71 3.75-8.64 1.25-2.36 1.25-2.36 4.25-3.36 2.34 4.63 2.26 8.74 2.2 13.8-0.00283 0.836-0.00566 1.67-0.00858 2.53-0.0112 2.66-0.0362 5.32-0.0617 7.98-0.01 1.81-0.0192 3.62-0.0273 5.42-0.022 4.42-0.0565 8.84-0.0977 13.3-2.9-0.339-2.9-0.339-6-1-1.61-2.58-1.61-2.58-2.75-5.81-0.387-1.06-0.773-2.12-1.17-3.21-0.356-0.984-0.712-1.97-1.08-2.98-0.654-1.34-1.32-2.67-2-4-4.31 0.138-8.63 0.287-12.9 0.438-1.23 0.0393-2.46 0.0786-3.73 0.119-1.17 0.0419-2.34 0.0838-3.54 0.127-1.08 0.0367-2.17 0.0733-3.28 0.111-2.44-0.071-2.44-0.071-3.5 1.21-0.114 2.89-0.164 5.75-0.168 8.64-0.00333 0.872-0.00666 1.74-0.0101 2.64-0.00508 1.85-0.00741 3.7-0.00725 5.56-0.00217 2.82-0.0203 5.64-0.0393 8.47-0.00294 1.8-0.00492 3.6-0.00586 5.4-0.00719 0.841-0.0144 1.68-0.0218 2.55 0.0179 4.63 0.365 8.44 2.25 12.8 4.39 4.16 10 3.41 15.7 3.31 1.41 0.00483 1.41 0.00483 2.86 0.00977 10.7 0.165 10.7 0.165 20.3-3.78 3.68-3.89 5.92-8.69 8.17-13.5 0.98-2.04 0.98-2.04 1.98-3.04 3-0.125 3-0.125 6 0 0.33 0.33 0.66 0.66 1 1-0.318 6.68-1.56 13-3 19.6-0.178 0.81-0.356 1.62-0.54 2.45-1.33 5.85-1.33 5.85-2.46 6.98-2.73 0.106-5.43 0.147-8.16 0.145-0.855 0.00336-1.71 0.00672-2.59 0.0102-2.84 0.00954-5.68 0.0115-8.53 0.0125-1.97 0.00321-3.93 0.00657-5.9 0.0101-4.13 6e-3 -8.26 0.00784-12.4 0.00725-5.3-1.02e-4 -10.6 0.0136-15.9 0.0308-4.06 0.0111-8.13 0.0131-12.2 0.0126-1.95 0.00118-3.91 0.00563-5.86 0.0133-2.73 0.00975-5.46 0.00694-8.19 8.95e-4 -1.22 0.00843-1.22 0.00843-2.47 0.017-5.59-0.0316-5.59-0.0316-7.82-2.26 0.375-2.62 0.375-2.62 1-5 0.771-0.193 1.54-0.387 2.34-0.586 1-0.26 2.01-0.521 3.04-0.789 0.998-0.255 2-0.51 3.02-0.773 2.73-0.676 2.73-0.676 4.6-2.85 1.09-5.42 1.15-10.8 1.16-16.3 0.00496-0.902 0.00993-1.8 0.015-2.73 0.0145-2.96 0.0214-5.92 0.0269-8.89 0.00576-2.07 0.0115-4.13 0.0173-6.2 0.0105-4.32 0.0163-8.64 0.0198-13 0.0055-5.54 0.0296-11.1 0.058-16.6 0.0186-4.26 0.0238-8.52 0.0254-12.8 0.00303-2.04 0.0111-4.09 0.0242-6.13 0.017-2.85 0.0152-5.7 0.00869-8.55 0.0138-1.27 0.0138-1.27 0.0279-2.56-0.0239-3.34-0.116-5.83-1.74-8.8-2.24-2.08-4.44-2.82-7.33-3.77-0.994-0.335-1.99-0.67-3.01-1.02-0.759-0.242-1.52-0.485-2.3-0.734 0.875-3.88 0.875-3.88 2-5 9.78-1.29 19.7-1.15 29.5-1.13z" fill="#1C3B46"/>
<path transform="translate(1279,997)" d="m0 0c2.03 3.21 2.29 5.88 2.41 9.64 0.0387 1.07 0.0773 2.14 0.117 3.24 0.0309 1.11 0.0619 2.22 0.0938 3.37 0.0387 1.13 0.0773 2.25 0.117 3.41 0.0942 2.78 0.18 5.56 0.258 8.34h-8c-0.496-1.09-0.993-2.17-1.5-3.29-4.12-8.77-7.22-15.1-15.9-20.1-7.3-1.74-12.9-0.821-19.5 2.84-4.18 2.96-5.56 6.06-6.76 10.9-0.902 5.6-0.254 9.16 2.68 14 0.91 1.59 0.91 1.59 0.91 3.59 0.57 0.271 1.14 0.541 1.73 0.82 2.34 1.21 4.46 2.59 6.65 4.05 3.9 2.52 7.86 4.82 12 7.01 1.44 0.77 1.44 0.77 2.91 1.56 1.92 1.02 3.85 2.03 5.79 3.03 7.84 4.16 15 8.8 19.4 16.7 0.473 0.819 0.946 1.64 1.43 2.48 3.74 7.73 3.16 18.5 1.07 26.7-3.47 9.79-12 18.5-21.3 22.9-13 5.13-26.7 4.86-40.1 1.94-0.729-0.157-1.46-0.314-2.21-0.475-12.5-2.98-12.5-2.98-15.9-8.22-0.26-0.884-0.521-1.77-0.789-2.68-0.291-0.972-0.583-1.94-0.883-2.95-0.245-0.967-0.49-1.93-0.742-2.93-0.224-0.843-0.449-1.69-0.68-2.55-1.39-5.95-2.26-12.4-1.32-18.4 1.21-1.88 1.21-1.88 3-3 2.38-0.23 2.38-0.23 5 1 2.02 2.71 3.49 5.67 5 8.69 4.11 8 7.68 14.3 15.6 19.1 0.929 0.584 1.86 1.17 2.82 1.77 5.33 2.89 10.7 2.92 16.6 2.42 5.8-1.81 9.78-4.57 13.1-9.71 2.29-5.88 1.9-14.1 0.0156-20.1-5.53-10.7-16.5-15.8-26.7-21.2-10.8-5.89-21.6-12.2-25.8-24.4-2.64-9.86-1.57-17.8 3.5-26.8 6.88-10.2 18.1-16.1 29.9-18.4 11.3-1.09 26.3-1.55 35.9 5.62z" fill="#1C3B46"/>
<path transform="translate(516 991)" d="m0 0c1.31 0.0052 1.31 0.0052 2.66 0.0105 16.6 0.275 16.6 0.275 22.5 4.59 5.48 7.62 3.84 22.6 4.23 31.7-3.32-0.302-5.48-0.605-8.17-2.63-2.25-2.91-3.63-5.89-5.14-9.24-3.05-6.43-6.15-11.4-13-14-0.887-0.0412-1.77-0.0825-2.69-0.125-1.11-0.0909-1.11-0.0909-2.25-0.184-6.09-0.307-10.8 0.426-15.8 4.18-4.1 4.4-5.74 8.3-6.31 14.2 0.636 7.63 4.21 12.1 9.9 17 4.3 3.21 9.04 5.5 13.8 7.86 13.7 6.8 25.5 13.2 31.6 27.9 2.56 7.67 2.22 19.5-0.902 27-6.41 11.6-15.6 17.3-28.1 21-14.5 3.87-33 1.55-46.4-4.55-5.33-5-5.52-13.5-6.36-20.3-0.146-1.05-0.293-2.1-0.443-3.18-0.128-1-0.257-2-0.389-3.03-0.117-0.909-0.234-1.82-0.355-2.75-2.42e-4 -0.735-4.83e-4 -1.47-7.32e-4 -2.23 2-2 2-2 5.12-2.12 0.949 0.0412 1.9 0.0825 2.88 0.125 0.536 0.928 1.07 1.86 1.62 2.81 0.369 0.636 0.737 1.27 1.12 1.93 0.901 1.62 1.76 3.27 2.58 4.93 3.3 6.54 6.68 11.1 12.7 15.3 0.558 0.433 1.12 0.866 1.69 1.31 4.67 3.01 9.53 3.1 14.9 3.19 0.729 0.0186 1.46 0.0372 2.21 0.0564 5.14-0.0603 8.15-1.11 12.2-4.56 3.79-4.46 4.66-8.15 4.5-13.9-0.0128-0.708-0.0256-1.42-0.0388-2.15-0.291-7.51-2.13-12-7.59-17.1-6.39-5.01-13.4-8.69-20.8-12.2-10.6-5.17-20.6-11.3-25.1-22.7-2.98-10.1-2.05-18.3 2.62-27.7 6.37-10.9 16.1-15.4 27.7-19.5 4.51-1.04 8.71-1.19 13.3-1.16z" fill="#1C3B46"/>
<path transform="translate(875,550)" d="m0 0c6.65 5.43 8.46 12.7 9.5 20.9-0.5 3.06-0.5 3.06-2.59 4.66-3.31 1.6-6.27 2.28-9.89 2.95-1.41 0.267-2.82 0.535-4.22 0.802-0.739 0.137-1.48 0.273-2.24 0.414-3.95 0.735-7.9 1.51-11.8 2.29-0.81 0.159-1.62 0.319-2.45 0.483-43.7 8.6-43.7 8.6-84.6 25.3-3.06 1.53-4.84 2.15-8.31 2.56-5.33-2.31-7.34-6.61-10.3-11.4-0.797-1.18-1.6-2.36-2.41-3.53-0.824-1.22-1.65-2.44-2.47-3.66-0.394-0.569-0.787-1.14-1.19-1.73-2.66-4.04-3.37-7.34-3.93-12.1 1.46-0.451 1.46-0.451 2.94-0.911 6.96-2.16 13.9-4.36 20.8-6.63 27.4-8.96 55.3-16.2 83.7-21.6 1.05-0.2 2.09-0.401 3.17-0.607 8.77-1.56 18.4-3.09 26.4 1.73z" fill="#EFF2F3"/>
<path transform="translate(669,994)" d="m0 0c1.28 0.26 2.55 0.521 3.87 0.789 3.13 1.21 3.13 1.21 4.27 3.38 0.959 3.16 1.4 6.13 1.75 9.41 0.133 1.24 0.267 2.49 0.404 3.77 0.131 1.29 0.262 2.58 0.396 3.91 0.142 1.3 0.285 2.61 0.432 3.95 0.749 7.15 0.749 7.15 0.881 9.8-1 1-1 1-4.3 1.04-3.7-1.04-3.7-1.04-4.94-2.51-1.09-2.01-2-4.04-2.88-6.15-4.37-10.6-4.37-10.6-12.9-17.8-0.639-0.296-1.28-0.593-1.94-0.898-11-3.88-22.5-2.1-32.9 2.53-11 5.51-16.6 13.5-21.2 24.7-2.2 6.85-3.6 13.8-4 21-0.0529 0.889-0.106 1.78-0.16 2.7-0.469 15.3 3.5 31.3 13.2 43.4 10.5 10.2 21.4 14.2 35.9 14.2 8.24-0.138 14.3-1.77 20.4-7.45 4.59-5.08 7.91-10.9 10.6-17.2 1.41-2.17 2.61-2.81 5.05-3.63 2.25 0.375 2.25 0.375 4 1-0.22 6.83-1.67 12.8-3.75 19.3-0.36 1.16-0.36 1.16-0.727 2.35-1.63 4.87-3.32 8.13-7.52 11.3-20.7 8.01-46.8 6.76-67-2-15.3-7.4-26.4-18.3-32.2-34.3-5.69-18.6-3.76-37.2 5.31-54.4 9.89-16.9 25.2-27.8 43.8-33.1 15.5-3.69 30.7-2.54 46.1 0.875z" fill="#1C3B46"/>
<path transform="translate(714 994)" d="m0 0c1.42-0.019 1.42-0.019 2.87-0.0384 1.02 0.00294 2.04 0.00587 3.1 0.0089 1.05-0.00524 2.1-0.0105 3.19-0.0159 2.23-0.00643 4.45-0.00508 6.68 0.00343 3.41 0.0085 6.81-0.0202 10.2-0.052 2.16-0.00161 4.32-0.00103 6.48 0.00195 1.02-0.0112 2.04-0.0225 3.09-0.034 7.03 0.0693 7.03 0.0693 10.4 2.37 1.33 2.16 1.33 2.16 1.33 5.16-0.736 0.159-1.47 0.317-2.23 0.48-5.87 1.4-10 2.43-13.8 7.52-1.45 3.92-1.16 8.1-1.16 12.2-0.00496 0.827-0.00993 1.65-0.015 2.5-0.0146 2.73-0.0214 5.46-0.0269 8.2-0.00575 1.9-0.0115 3.81-0.0173 5.71-0.0105 3.99-0.0163 7.98-0.0198 12-0.00548 5.1-0.0295 10.2-0.058 15.3-0.0187 3.93-0.0238 7.87-0.0254 11.8-0.00302 1.88-0.011 3.76-0.0242 5.64-0.0172 2.64-0.0152 5.27-0.00869 7.91-0.00921 0.769-0.0184 1.54-0.0279 2.33 0.0413 5.41 1.12 9.47 3.38 14.4 4.63 3.47 9.19 3.44 14.8 3.31 0.797-0.012 1.59-0.024 2.42-0.0364 11.5-0.0975 11.5-0.0975 21.4-5.44 2.69-3.46 4.64-7.39 6.62-11.3 1.81-2.55 1.81-2.55 4.41-3.48 2.4-0.0703 2.4-0.0703 4.28 1.05 1.12 1.88 1.12 1.88 0.82 4.09-0.775 3.1-1.71 6.12-2.7 9.16-1.43 4.57-2.56 8.86-3 13.6-4.37 2.16-8.38 2.28-13.2 2.24-0.807 0.0019-1.61 0.0038-2.45 0.00575-2.66 0.00369-5.32-0.00697-7.97-0.0182-1.85-0.00119-3.7-0.00164-5.55-0.00139-3.87-0.00156-7.74-0.00983-11.6-0.0233-4.97-0.017-9.93-0.0208-14.9-0.0201-3.81-2.71e-4 -7.63-0.00575-11.4-0.013-1.83-0.00319-3.66-0.00515-5.5-0.00589-2.55-0.00216-5.11-0.0109-7.66-0.0216-0.761 4.53e-4 -1.52 9.06e-4 -2.31 0.00137-5.23-0.0322-5.23-0.0322-7.46-1.15-0.188-2.88-0.188-2.88 0-6 3-2 3-2 6.44-1.88 3.6 0.225 3.6 0.225 5.94-2 3.22-4.21 2.79-8.07 2.8-13.2 0.00986-1.41 0.00986-1.41 0.0199-2.85 0.0198-3.12 0.0314-6.24 0.0414-9.36 0.00408-1.06 0.00815-2.13 0.0124-3.22 0.0209-5.63 0.0352-11.3 0.0445-16.9 0.0111-5.82 0.0455-11.6 0.0852-17.5 0.0261-4.47 0.0345-8.94 0.0381-13.4 0.00488-2.15 0.0165-4.29 0.035-6.44 0.0243-3 0.0235-6 0.0165-9 0.0192-1.33 0.0192-1.33 0.0388-2.7-0.0172-4.93-0.0172-4.93-2.38-9.16-3.14-2.18-6.3-2.75-9.99-3.57-2.14-0.906-2.14-0.906-3.13-2.81-0.0117-2.09-0.0117-2.09 1.19-3.7 2.3-1.79 3.59-1.78 6.48-1.8z" fill="#1C3B46"/>
<path transform="translate(994 1e3)" d="m0 0c5.89 1.5 9.23 4.91 12.8 9.71 3.51 6.56 3.56 12.9 3.54 20.2l0.0488 2.88c0.00523 7.59-1.21 13.1-5.61 19.4-6.65 6.65-12.3 7.3-21.3 7.87-3.2-0.11-4.79-0.395-7.43-2.12 0.0116-0.568 0.0232-1.14 0.0352-1.72 0.00902-0.772 0.018-1.54 0.0273-2.34 0.0174-1.13 0.0174-1.13 0.0352-2.29-0.0493-2.75-0.0493-2.75-0.591-5.82-0.52-3.93-0.685-7.78-0.71-11.7-0.0057-0.731-0.0114-1.46-0.0173-2.21-0.00938-1.53-0.016-3.07-0.0198-4.6-0.00975-2.33-0.0409-4.67-0.0723-7-0.00653-1.5-0.0118-3-0.0156-4.49-0.0123-0.691-0.0247-1.38-0.0374-2.09 0.0211-4.63 0.896-7.78 3.37-11.7 4.91-3.27 10.3-2.53 16-2z" fill="#FBFEFF"/>
<path transform="translate(1053,1162)" d="m0 0c4.79-0.0742 9.57-0.129 14.4-0.165 1.63-0.0151 3.26-0.0356 4.89-0.0615 2.34-0.0364 4.68-0.0534 7.02-0.0667 0.728-0.0155 1.46-0.031 2.21-0.0469 5.01-0.00167 5.01-0.00167 7.48 1.65 2.38 3.88 1.28 8.54 0.396 12.8-0.532 2.22-1.07 4.44-1.62 6.66-0.987 4.4-1.44 8.78-1.73 13.3-0.701-0.309-1.4-0.619-2.12-0.938-4.92-1.82-9.65-2.31-14.9-2.06-1.56 1.56-1.13 3.06-1.13 5.22-0.00129 0.849-0.00258 1.7-0.00391 2.57 0.0058 1.34 0.0058 1.34 0.0117 2.71-0.00387 0.893-0.00773 1.79-0.0117 2.71 0.00193 1.27 0.00193 1.27 0.00391 2.57 0.00113 0.784 0.00226 1.57 0.00342 2.38-0.0717 1.86-0.0717 1.86 1.13 2.84 2.62 0.207 5.19 0.324 7.81 0.375 0.725 0.0374 1.45 0.0748 2.2 0.113 2.43 0.0937 2.43 0.0937 5.99-0.488 2.29-2.25 3.58-4.16 5-7h3c0.0542 1.6 0.0929 3.21 0.125 4.81 0.0232 0.893 0.0464 1.79 0.0703 2.71-0.195 2.48-0.195 2.48-2.2 5.48-3.03 0.291-5.85 0.396-8.88 0.363-1.32 7.48e-4 -1.32 7.48e-4 -2.67 0.00151-1.86-0.00234-3.73-0.0121-5.59-0.0286-2.86-0.0236-5.71-0.0206-8.57-0.0139-1.81-0.00558-3.61-0.0127-5.42-0.0215-1.29 0.00137-1.29 0.00137-2.6 0.00276-6.04-0.0725-6.04-0.0725-8.27-2.3 1.19-1.5 1.19-1.5 3-3 2.61-0.0938 2.61-0.0938 5 0 0.0991-6.16 0.172-12.3 0.22-18.5 0.0201-2.09 0.0473-4.19 0.082-6.28 0.0487-3.01 0.0712-6.03 0.0889-9.04 0.031-1.4 0.031-1.4 0.0626-2.82 0.00202-5.89-0.853-8.74-4.45-13.4v-3z" fill="#1C3B46"/>
<path transform="translate(881,1162)" d="m0 0c4.65-1.08 8.37-1.29 13 0 4.43 3.77 7.38 9.07 10.5 13.9 2.16 3.12 4.66 5.86 7.27 8.6 3.66 3.88 7.22 7.8 10.7 11.9 1.7 1.79 3.55 3.16 5.54 4.62-0.0194-4.5-0.0711-9-0.153-13.5-0.0232-1.53-0.0376-3.06-0.043-4.59-0.00928-2.2-0.0502-4.4-0.0974-6.61 0.00393-0.684 0.00787-1.37 0.0119-2.07-0.0128-2.18-0.0128-2.18-0.719-5.22-2.4-2.02-2.4-2.02-5-3 0.66-1.32 1.32-2.64 2-4 2.46-0.0269 4.92-0.0468 7.38-0.0625 0.699-0.00838 1.4-0.0168 2.12-0.0254 5.28-0.0254 5.28-0.0254 7.51 1.09-0.75 1.94-0.75 1.94-2 4-2.08 0.629-2.08 0.629-4 1-0.144 6.28-0.286 12.6-0.427 18.8-0.0482 2.13-0.0967 4.27-0.146 6.4-0.0702 3.08-0.139 6.15-0.208 9.23-0.0328 1.42-0.0328 1.42-0.0663 2.87-0.109 4.89-0.176 9.77-0.152 14.7-4.52-0.163-6.51-0.549-9.89-3.67-0.952-1.16-1.88-2.33-2.8-3.52-1.04-1.28-2.08-2.56-3.12-3.84-0.526-0.659-1.05-1.32-1.59-2-2.54-3.14-5.2-6.18-7.85-9.23-4.18-4.85-8.22-9.78-12.1-14.9-1.67-2.12-1.67-2.12-4.62-3.89 0.107 0.979 0.107 0.979 0.217 1.98 0.718 7.09 0.905 14.1 0.846 21.2-0.00451 1.05-0.00902 2.09-0.0137 3.17-0.0116 2.55-0.028 5.09-0.0488 7.64 0.969 0.412 1.94 0.825 2.94 1.25 1.01 0.578 2.02 1.15 3.06 1.75 0.33 1.32 0.66 2.64 1 4h-18c0-4.43 0.457-4.74 3-8 1.94-6.26 1.3-13.3 1.35-19.8 0.0166-1.73 0.0439-3.45 0.082-5.18 0.0549-2.5 0.0767-5 0.0913-7.5 0.0227-0.766 0.0453-1.53 0.0687-2.32-0.0228-5.81-1.67-8-5.59-12.2v-3z" fill="#1C3B46"/>
<path transform="translate(824,1161)" d="m0 0c2.16 2.69 3.6 5.12 4.79 8.35 0.318 0.852 0.635 1.7 0.962 2.58 0.502 1.37 0.502 1.37 1.01 2.77 0.733 1.95 1.47 3.9 2.2 5.85 1.14 3.06 2.28 6.12 3.41 9.19 1.1 2.97 2.21 5.93 3.33 8.89 0.326 0.903 0.653 1.81 0.989 2.74 2.19 5.75 4.94 10.1 8.93 14.8 1.38 1.8 1.38 1.8 1.38 3.8-3.12 0.0579-6.25 0.0936-9.38 0.125-0.889 0.0168-1.78 0.0335-2.7 0.0508-1.28 0.00967-1.28 0.00967-2.58 0.0195-1.18 0.0157-1.18 0.0157-2.38 0.0317-1.97-0.227-1.97-0.227-3.97-2.23 0.516-0.536 1.03-1.07 1.56-1.62 1.71-2.32 1.71-2.32 1.31-5.25-0.926-3.31-2.29-6.09-3.88-9.12v-2c-2.06 0.142-4.13 0.289-6.19 0.438-1.15 0.0812-2.3 0.162-3.48 0.246-2.87 0.272-5.56 0.547-8.33 1.32-2.37 3.84-2.33 7.58-2 12 0.66 0.99 1.32 1.98 2 3v3h-16c0-3 0-3 1.34-4.59 0.601-0.592 1.2-1.18 1.82-1.79 4.69-5.17 6.83-11 9.28-17.4 0.946-2.4 1.89-4.8 2.84-7.2 0.459-1.18 0.917-2.36 1.39-3.57 1.89-4.85 3.84-9.67 5.83-14.5 0.314-0.784 0.628-1.57 0.951-2.38 1.49-3.61 2.22-5.34 5.55-7.56z" fill="#1C3B46"/>
<path transform="translate(531,1161)" d="m0 0c4.52 3.6 5.73 8.01 7.5 13.3 0.315 0.908 0.631 1.82 0.956 2.75 1.01 2.9 2 5.8 2.99 8.7 0.985 2.89 1.97 5.78 2.97 8.66 0.622 1.79 1.23 3.59 1.84 5.38 1.68 4.84 3.65 9.05 6.49 13.3 1.5 2.25 2.87 4.58 4.26 6.89h-19c-0.33-0.66-0.66-1.32-1-2 0.66-0.99 1.32-1.98 2-3-0.142-4.32-0.797-7.43-2.25-11.5-3.98-3.62-7.43-3.14-12.7-3.1-3.64 0.708-4.82 1.74-7.09 4.6-1.53 3.06-1.23 5.63-1 9 1.4 2.28 1.4 2.28 3 4v2c-5.46 0.111-10.6-0.0834-16-1 0.397-2.78 0.853-3.86 2.92-5.84 2.24-2.32 3.06-4.01 4.12-7.03 0.347-0.958 0.694-1.92 1.05-2.9 0.361-1.02 0.721-2.05 1.09-3.1 0.787-2.16 1.58-4.32 2.37-6.48 0.402-1.1 0.804-2.2 1.22-3.33 1.93-5.22 3.96-10.4 6.04-15.6 0.361-0.922 0.721-1.84 1.09-2.79 1.79-4.43 3.26-7.89 7.09-11z" fill="#1C3B46"/>
<path transform="translate(462 1196)" d="m0 0c1.91-0.024 3.83 0.00508 5.74 0.0434 1 1 1 1 1.1 3.72-0.0326 3.09-0.0651 6.18-0.0977 9.28-0.754-0.0628-1.51-0.126-2.29-0.19-8.5-0.639-17-0.974-25.5-1.2-1.21-0.0327-2.42-0.0654-3.66-0.0991-2.59-0.0697-5.18-0.139-7.78-0.208-28.6-0.771-57.2-2-85.8-3.42-0.926-0.0462-1.85-0.0924-2.81-0.14-11.4-0.568-22.8-1.15-34.1-1.74v-1c36.9-2.13 73.9-3.42 111-4.19 1.02-0.0213 2.04-0.0427 3.09-0.0647 6.84-0.143 13.7-0.282 20.5-0.416 0.89-0.0175 1.78-0.035 2.7-0.053 2.51-0.0488 5.02-0.0962 7.53-0.143 0.725-0.014 1.45-0.028 2.2-0.0424 2.78-0.0505 5.56-0.0835 8.34-0.137z" fill="#F0F3F4"/>
<path transform="translate(972,507)" d="m0 0v2c1.41 0.702 2.83 1.39 4.25 2.06 0.789 0.383 1.58 0.766 2.39 1.16 2.64 0.87 3.82 0.851 6.36-0.223 0.33-0.66 0.66-1.32 1-2 8.92-0.624 8.92-0.624 13.1 1.81 1.88 2.19 1.88 2.19 1.88 5.19h2c2.34 5.72 3.08 11.2 1.38 17.2-2.04 4.79-4.82 7.53-9.36 10.1-2.99 1.14-5.02 0.724-8.02-0.23-2.58-0.726-4.03-0.997-6.75-0.688-4.79-0.461-7.78-3.1-11.2-6.31-2.31-3.47-2.16-4.31-1.76-8.32 0.0967-1.03 0.193-2.06 0.293-3.12 0.168-1.61 0.168-1.61 0.34-3.25 0.104-1.08 0.209-2.17 0.316-3.28 0.26-2.68 0.529-5.35 0.809-8.03l-4 2v-3c4.22-3 4.22-3 7-3z" fill="#EFF2F3"/>
<path transform="translate(1131,1197)" d="m0 0c54.4-0.247 109 0.526 163 3-3.06 3.06-6.7 2.43-10.8 2.56-1.37 0.0541-1.37 0.0541-2.78 0.109-3.06 0.118-6.12 0.223-9.18 0.328-2.16 0.0811-4.32 0.163-6.48 0.246-5.73 0.218-11.5 0.425-17.2 0.629-9 0.323-18 0.663-27 1-3.34 0.125-6.68 0.247-10 0.37-10.6 0.393-21.2 0.817-31.9 1.32-0.977 0.0467-1.95 0.0934-2.96 0.142-4.55 0.219-9.1 0.444-13.6 0.679-10.4 0.521-20.7 0.714-31.1 0.609v-11z" fill="#F0F3F4"/>
<path transform="translate(1e3 1161)" d="m0 0c0.699-0.0122 1.4-0.0245 2.12-0.0371 4.07-0.0115 7.31 0.205 10.9 2.22 2.23 2.22 2.94 3.44 3.29 6.58-0.0348 0.882-0.0696 1.76-0.105 2.67-0.0406 1.34-0.0406 1.34-0.082 2.7-0.0348 0.675-0.0696 1.35-0.105 2.05-3 0-3 0-4.94-1.69-2.06-2.31-2.06-2.31-4.12-5-2.18-2.6-3.58-3.15-6.92-3.55-5.9-0.199-10.2 0.821-15 4.24-6.37 6.09-8.13 12.9-8.5 21.4 0.19 7.71 2.52 13.7 8.06 19.1 4.53 2.79 7.45 3.81 12.9 3.88 1.67 0.0425 1.67 0.0425 3.37 0.0859 3.88-0.56 5.44-1.72 8.19-4.46 1.28-1.82 1.28-1.82 2.12-3.69 1.88-3.31 1.88-3.31 4.88-4.31 1.65 1.65 1.17 3.55 1.19 5.81 0.0142 0.873 0.0284 1.75 0.043 2.64-0.248 2.73-0.686 4.28-2.23 6.54-7.91 5.06-20 3.88-28.9 2.38-7.53-2.02-13.8-7.01-18.1-13.4-4.16-7.93-3.73-15-1.44-23.5 3.39-10.1 8.37-15.5 17.8-20.4 5.17-2.13 10.1-2.28 15.6-2.28z" fill="#1C3B46"/>
<path transform="translate(1027 357)" d="m0 0c4.01 2.79 6.8 5.54 8.88 10 1.11 6.82 0.584 13.1-3 19-3.56 4.12-7.85 5.21-13.1 6-5.78-0.00774-10.4-2.71-14.6-6.57-2.96-3.38-4.18-6.16-4.61-10.6 0.478-5.83 2.49-10 6.69-14.1 6.86-4.41 11.9-6.21 19.8-3.69z" fill="#1C3B46"/>
<path transform="translate(584,356)" d="m0 0c5.88 2.88 9.87 7.27 12.4 13.3 0.853 5.03 1.19 9.9-1.39 14.5-3.63 4.61-7.48 7.11-13.2 8.2-5.75 0.471-10.2-1.73-14.8-5-4.02-4.24-5.37-9.02-5.28-14.8 0.682-5.38 3.32-9.64 7.4-13.1 4.95-3.55 8.87-3.72 14.9-3.06z" fill="#1C3B46"/>
<path transform="translate(791 686)" d="m0 0c0.707 0.00141 1.41 0.00283 2.14 0.00429 2.26 0.0056 4.52 0.0182 6.79 0.0309 1.53 0.00501 3.07 0.00958 4.6 0.0137 3.76 0.011 7.52 0.0283 11.3 0.0488 0.471 1.66 0.471 1.66 0.952 3.36 0.572 1.99 1.16 3.98 1.82 5.94 0.602 1.89 0.602 1.89 1.23 5.71-3.87 5.06-9.77 6.71-15.5 9-1.86 0.746-3.71 1.51-5.56 2.28-1.18 0.478-2.36 0.956-3.58 1.45-1.07 0.435-2.15 0.871-3.26 1.32-3.27 0.999-5.7 1.36-9.1 0.946-3.01-4.51-2.85-9.18-3.31-14.5-0.112-1.06-0.223-2.12-0.338-3.21-0.0909-1.01-0.182-2.03-0.275-3.07-0.0868-0.929-0.174-1.86-0.263-2.81 0.189-2.4 0.189-2.4 1.56-4.17 3.49-2.65 6.62-2.37 10.8-2.33z" fill="#1C3B46"/>
<path transform="translate(833,597)" d="m0 0 1 2c0.99 0.33 1.98 0.66 3 1 0.688 2.06 0.688 2.06 1 4-0.664 0.124-1.33 0.247-2.01 0.375-4.95 1.16-8.21 2.06-11 6.5-1.59 2.98-2.74 5.97-4 9.12h-49c-0.33-0.99-0.66-1.98-1-3 6.65-7.28 17.1-9.93 26.2-13.1 0.995-0.342 1.99-0.684 3.02-1.04 23.1-7.82 23.1-7.82 32.8-5.9z" fill="#1C3B46"/>
<path transform="translate(669,1161)" d="m0 0c3.1-0.0581 6.21-0.0936 9.31-0.125 0.881-0.0168 1.76-0.0335 2.67-0.0508 0.848-0.00645 1.7-0.0129 2.57-0.0195 1.17-0.0157 1.17-0.0157 2.36-0.0317 2.08 0.227 2.08 0.227 5.08 2.23l-4.59 3.71c-1.79 1.64-2.37 2.74-2.53 5.16 0.00222 0.759 0.00444 1.52 0.00673 2.3 1.13e-4 1.29 1.13e-4 1.29 2.29e-4 2.61 0.00516 0.93 0.0103 1.86 0.0156 2.82 0.00212 1.43 0.00212 1.43 0.00429 2.88 0.00561 3.05 0.0182 6.09 0.0309 9.14 0.00501 2.06 0.00958 4.12 0.0137 6.19 0.011 5.06 0.0283 10.1 0.0488 15.2 3.19 1.59 6.63 1.1 10.1 1.06 1.13-0.00677 1.13-0.00677 2.29-0.0137 1.86-0.0118 3.73-0.0297 5.59-0.0488 0.3-0.767 0.601-1.53 0.91-2.32 1.14-2.8 2.33-5.22 4.09-7.68h3c0.054 2.1 0.0928 4.21 0.125 6.31 0.0232 1.17 0.0464 2.34 0.0703 3.55-0.195 3.14-0.195 3.14-2.2 6.14-2.87 0.279-5.53 0.372-8.4 0.328-1.25-0.00281-1.25-0.00281-2.53-0.00568-1.76-0.00673-3.53-0.0207-5.29-0.0412-2.7-0.0311-5.4-0.041-8.1-0.0469-1.71-0.00917-3.43-0.0195-5.14-0.0312-0.809-0.00425-1.62-0.0085-2.45-0.0129-3.27-0.0417-5.96-0.148-9.08-1.19 0.33-0.99 0.66-1.98 1-3 1.32-0.66 2.64-1.32 4-2v-48c-1.32-0.66-2.64-1.32-4-2 0.33-0.99 0.66-1.98 1-3z" fill="#1C3B46"/>
<path transform="translate(596 1161)" d="m0 0c0.786 0.0105 1.57 0.0209 2.38 0.0317 0.851 0.00645 1.7 0.0129 2.58 0.0195 1.33 0.0251 1.33 0.0251 2.7 0.0508 1.35 0.0135 1.35 0.0135 2.72 0.0273 2.22 0.0236 4.44 0.0565 6.66 0.0977 0 3.94-1.58 4.99-4 8-0.912 2.78-1.12 5.3-1.11 8.22 1.13e-4 1.23 1.13e-4 1.23 2.29e-4 2.49 0.00516 0.876 0.0103 1.75 0.0156 2.66 0.00212 1.36 0.00212 1.36 0.00429 2.74 0.00559 2.88 0.0181 5.77 0.0309 8.65 0.00502 1.96 0.00958 3.91 0.0137 5.87 0.011 4.79 0.0283 9.59 0.0488 14.4 3.07 0.146 6.15 0.234 9.22 0.312 1.3 0.0628 1.3 0.0628 2.63 0.127 5.43 0.136 5.43 0.136 9.89-2.78 1.75-2.62 1.75-2.62 3-5.47 0.414-0.722 0.828-1.44 1.25-2.19h4c-0.114 2.1-0.242 4.21-0.375 6.31-0.104 1.76-0.104 1.76-0.211 3.55-0.414 3.14-0.414 3.14-2.41 6.14-1.87 0.361-1.87 0.361-4.17 0.341-1.29-3.4e-4 -1.29-3.4e-4 -2.61-6.87e-4 -0.93-0.0155-1.86-0.031-2.82-0.0469-0.952-0.00424-1.9-0.00849-2.88-0.0129-3.05-0.0168-6.09-0.0545-9.14-0.0926-2.06-0.015-4.12-0.0287-6.19-0.041-5.06-0.0331-10.1-0.0849-15.2-0.146v-4c1.65-0.66 3.3-1.32 5-2 0.127-6.46 0.214-12.9 0.275-19.4 0.0251-2.2 0.0592-4.39 0.103-6.59 0.0607-3.16 0.089-6.32 0.111-9.48 0.0258-0.98 0.0516-1.96 0.0782-2.97 0.0649-5.95 0.0649-5.95-3.1-10.7-0.815-0.607-1.63-1.21-2.47-1.84 2-2 2-2 3.97-2.23z" fill="#1C3B46"/>
<path transform="translate(374,1021)" d="m0 0h3c3.02 8.13 5.83 16.3 8.57 24.5 0.686 2.05 1.38 4.11 2.07 6.16 0.438 1.31 0.875 2.62 1.31 3.93 0.393 1.18 0.787 2.35 1.19 3.56 0.854 2.81 0.854 2.81 0.854 4.81h-30c-1-2-1-2-0.259-4.81 0.399-1.18 0.797-2.35 1.21-3.56 0.214-0.637 0.428-1.27 0.648-1.93 0.69-2.05 1.39-4.09 2.09-6.14 0.453-1.34 0.906-2.69 1.36-4.03 2.55-7.55 5.19-15.1 7.96-22.5z" fill="#FAFEFE"/>
<path transform="translate(881,587)" d="m0 0c1.26 4.29 0.63 6.88-1 11h-2c-0.0928 1.73-0.0928 1.73-0.188 3.5-0.589 4.99-2.92 8.49-5.81 12.5-5.65-0.487-9.55-2.02-14.4-4.81-1.32-0.724-2.64-1.45-3.96-2.17-2.06-1.15-4.12-2.31-6.18-3.47-3.04-1.65-4.92-2.59-8.43-2.3-0.66 0.247-1.32 0.495-2 0.75v-2c-2.97-0.495-2.97-0.495-6-1-0.33-0.99-0.66-1.98-1-3 2.06-0.507 4.12-1.01 6.19-1.5 1.15-0.278 2.3-0.557 3.48-0.844 2.9-0.571 5.39-0.789 8.33-0.656v-2c1.11 0.0412 2.22 0.0825 3.36 0.125 5.1 0 9.86-1.03 14.8-2.12 1.74-0.38 3.49-0.755 5.23-1.12 0.761-0.168 1.52-0.335 2.31-0.508 2.46-0.397 4.79-0.429 7.28-0.367z" fill="#E3E8E9"/>
<path transform="translate(748 1161)" d="m0 0c0.851 0.00322 1.7 0.00645 2.58 0.00977 0.889 0.00838 1.78 0.0168 2.7 0.0254 0.897 0.00451 1.79 0.00902 2.72 0.0137 2.22 0.0118 4.44 0.0283 6.66 0.0488v4c-1.32 0.33-2.64 0.66-4 1-1.23 4.86-1.22 9.69-1.32 14.7-0.0208 0.925-0.0416 1.85-0.063 2.8-0.0652 2.94-0.124 5.89-0.183 8.83-0.0432 2-0.0868 4-0.131 6-0.107 4.9-0.208 9.79-0.307 14.7 0.784 0.227 1.57 0.454 2.38 0.688 2.62 1.31 2.62 1.31 4.62 6.31h-22v-3c0.974-0.696 0.974-0.696 1.97-1.41 2.21-1.4 2.21-1.4 2.54-3.67 0.00318-0.798 0.00636-1.6 0.00964-2.42 0.0126-0.908 0.0252-1.82 0.0382-2.75-0.0081-0.978-0.0162-1.96-0.0245-2.96 0.00383-1.01 0.00765-2.01 0.0116-3.05 0.00272-2.13-0.00466-4.26-0.0214-6.39-0.0214-3.26-2.21e-4 -6.52 0.0254-9.78-0.00264-2.07-0.00777-4.14-0.0156-6.21 0.0081-0.976 0.0162-1.95 0.0245-2.96 0.0301-5.39 0.0301-5.39-2.59-9.91-0.649-0.488-1.3-0.976-1.97-1.48v-2c2.35-1.17 3.74-1.12 6.35-1.1z" fill="#1C3B46"/>
<path transform="translate(1079,1166)" d="m0 0c3.42 1.17 3.92 1.87 6 5 0.301 2.78 0.301 2.78 0.312 5.94 0.0168 1.04 0.0335 2.08 0.0508 3.15-0.415 3.32-0.86 4.69-3.36 6.91-2.81 0.496-2.81 0.496-6 0.438-1.05-0.00129-2.1-0.00258-3.19-0.00391-2.81-0.434-2.81-0.434-4.67-1.56-1.7-2.78-1.5-5.08-1.46-8.31 0.00387-1.13 0.00773-2.27 0.0117-3.43 0.285-2.97 0.658-4.67 2.3-7.13 3.18-1.59 6.53-1.28 10-1z" fill="#FBFEFF"/>
<path transform="translate(881,587)" d="m0 0c1.26 4.29 0.63 6.88-1 11h-2v5c-4.26-0.474-6.15-3-9-6-0.66-0.33-1.32-0.66-2-1-0.684-1.32-1.35-2.66-2-4l-2-2c5.95-2.18 11.7-3.19 18-3z" fill="#2A4751"/>
<path transform="translate(820,1178)" d="m0 0c4.35 3.45 5.83 7.73 7 13v5h-11c-1.14-4.57-0.554-6.29 0.875-10.7 0.369-1.16 0.737-2.32 1.12-3.51 1.01-2.8 1.01-2.8 2.01-3.8z" fill="#FAFEFF"/>
<path transform="translate(527,1178)" d="m0 0c4.69 3.56 5.83 8.46 7 14v4h-11c-1.52-3.03-0.452-5.19 0.312-8.44 0.396-1.73 0.396-1.73 0.801-3.5 0.887-3.07 0.887-3.07 2.89-6.07z" fill="#F9FDFD"/>
<path transform="translate(953,458)" d="m0 0c-11.7 6-24.2 5.34-37 5-0.33-0.66-0.66-1.32-1-2 10.6-5.3 26.5-3.22 38-3z" fill="#F0F3F4"/>
<path transform="translate(681,460)" d="m0 0c0.33 0.99 0.66 1.98 1 3h-21v-2c-3.3-0.33-6.6-0.66-10-1v-1c10.3-1.06 19.8-0.926 30 1z" fill="#F0F3F4"/>
<path transform="translate(965,1395)" d="m0 0c1.03 0.309 2.06 0.619 3.12 0.938 2.42 0.709 4.53 1.14 7.06 1.44 3.54 0.787 4.61 1.77 6.81 4.62 0.391 3.23 0.391 3.23 0.25 6.75-0.0361 1.17-0.0722 2.34-0.109 3.55-0.0696 1.34-0.0696 1.34-0.141 2.7-1.65 0.66-3.3 1.32-5 2l1-2c0.0963-2.02 0.13-4.04 0.125-6.06 0.00258-1.08 0.00516-2.17 0.00781-3.29 0.168-2.57 0.168-2.57-1.13-3.65-0.33 0.99-0.66 1.98-1 3-0.0606-0.624-0.121-1.25-0.184-1.89-0.625-2.34-0.625-2.34-3.1-3.16-0.917-0.232-1.83-0.464-2.78-0.703-0.919-0.242-1.84-0.485-2.79-0.734-0.71-0.17-1.42-0.34-2.15-0.516v-3z" fill="#F0F3F4"/>
<path transform="translate(688,494)" d="m0 0c-0.33 0.66-0.66 1.32-1 2-3.69 0.0293-7.37 0.0469-11.1 0.0625-1.04 0.00838-2.08 0.0168-3.15 0.0254-5.38 0.0171-10.5-0.134-15.8-1.09v-1c0.759-0.0606 1.52-0.121 2.3-0.184 0.994-0.0838 1.99-0.168 3.01-0.254 0.986-0.0812 1.97-0.162 2.99-0.246 16.6-1.95 16.6-1.95 22.7 0.684z" fill="#F0F3F4"/>
<path transform="translate(915 492)" d="m0 0c8.81 0.0612 17.5 1.2 26.2 2.27v1c-5.95 0.865-11.8 1.14-17.8 1.19-0.741 0.0129-1.48 0.0258-2.25 0.0391-3.8 0.00691-6.72-0.0867-9.94-2.23 2-2 2-2 3.75-2.27z" fill="#F0F3F4"/>
<path transform="translate(669,521)" d="m0 0c3.25-0.0582 6.5-0.0937 9.75-0.125 0.92-0.0168 1.84-0.0335 2.79-0.0508 0.889-0.00645 1.78-0.0129 2.7-0.0195 0.817-0.0105 1.63-0.0209 2.48-0.0317 2.51 0.249 4.12 0.97 6.29 2.23-7.82 2.29-14.8 3.43-23 3v-2c1.32-0.33 2.64-0.66 4-1-1.65-0.33-3.3-0.66-5-1v-1z" fill="#F0F3F4"/>
<path transform="translate(855,607)" d="m0 0c1.18 0.186 2.35 0.371 3.56 0.562 3.98 0.516 7.47 0.0606 11.4-0.562 0.99 0.33 1.98 0.66 3 1 0.33 0.99 0.66 1.98 1 3-0.99 1.49-0.99 1.49-2 3-6.49-0.423-11.3-2.91-17-6v-1z" fill="#1E3D48"/>
<path transform="translate(771,1445)" d="m0 0c0.868 0.104 1.74 0.209 2.63 0.316 2.69 0.342 2.69 0.342 5.37 0.684v1h-36v-2c2.98-0.197 5.96-0.383 8.94-0.562 1.25-0.0841 1.25-0.0841 2.52-0.17 5.64-0.329 11-0.0566 16.5 0.732z" fill="#FBFEFF"/>
<path transform="translate(909,520)" d="m0 0h16v2c1.98 0.66 3.96 1.32 6 2v1c-7.93 0.368-14.5-0.225-22-3v-2z" fill="#F0F3F4"/>
<path transform="translate(903,545)" d="m0 0v2c1.98 0.66 3.96 1.32 6 2v1c-6.41 0.209-11.9 0.158-18-2v-2c4.04-0.634 7.91-1.12 12-1z" fill="#F0F3F4"/>
<path transform="translate(567,388)" d="m0 0c4.82 0.413 6.91 2.38 10 6v2c-3.95-0.551-7.35-1.39-11-3 0.33-1.65 0.66-3.3 1-5z" fill="#F2F5F6"/>
<path transform="translate(650,455)" d="m0 0c1.58 0.142 3.17 0.289 4.75 0.438 0.882 0.0812 1.76 0.162 2.67 0.246 2.27 0.279 4.38 0.704 6.58 1.32v2h-16c0.66-0.33 1.32-0.66 2-1v-3z" fill="#F8FBFD"/>
<path transform="translate(1017,1425)" d="m0 0h7v6h-7v-6z" fill="#FBFFFF"/>
<path transform="translate(1033,1421)" d="m0 0h7v6h-7v-6z" fill="#FBFFFF"/>
<path transform="translate(569,1425)" d="m0 0h6v6c-3.47 1.16-6.36 1.07-10 1 2.65-1.46 3.89-2 7-2v-2c-1.32-0.33-2.64-0.66-4-1 0.33-0.66 0.66-1.32 1-2z" fill="#FBFFFF"/>
<path transform="translate(692,1373)" d="m0 0h3v2c0.557-0.351 1.11-0.701 1.69-1.06 2.85-1.16 4.4-0.747 7.31 0.0625v3h-12v-4z" fill="#FBFFFF"/>
<path transform="translate(1030,387)" d="m0 0c1.32 0.66 2.64 1.32 4 2-0.998 2.49-1.69 3.79-3.94 5.31-2.06 0.688-2.06 0.688-5.06-0.312 0.33-0.66 0.66-1.32 1-2-0.66-0.33-1.32-0.66-2-1 1.98-1.32 3.96-2.64 6-4z" fill="#F0F3F4"/>
<path transform="translate(820,1178)" d="m0 0c1.32 1.32 2.64 2.64 4 4-0.66 2.31-1.32 4.62-2 7-2.06-1.62-2.06-1.62-4-4 0.312-5.31 0.312-5.31 2-7z" fill="#F5F8F9"/>
<path transform="translate(705 548)" d="m0 0c1.01 0.178 1.01 0.178 2.05 0.359-4.75 3.16-8.32 3.11-14 3 3.32-4.98 6.61-4.13 12-3.36z" fill="#F0F3F4"/>
<path transform="translate(953,456)" d="m0 0v2c-5.05 1.04-9.87 1.1-15 1v-2c5.57-1.66 9.31-2.19 15-1z" fill="#F8FBFD"/>
<path transform="translate(892,1179)" d="m0 0c2.47 1.15 4.05 2.05 6 4 0.125 3.12 0.125 3.12 0 6-3.54-3.17-5.59-5.17-6-10z" fill="#F5F8F9"/>
<path transform="translate(928,1440)" d="m0 0c-0.33 0.99-0.66 1.98-1 3h-11v-2c4.06-0.774 7.86-1.1 12-1z" fill="#FBFEFF"/>
</svg>
